# xmcd
#
# Track frame offsets:
#	150
#	15001
#	29588
#	44234
#	58904
#
# Disc length: 1057 seconds
#
# Revision: 2
# Processed by: cddbd v1.5.2PL0 Copyright (c) Steve Scherf et al.
# Submitted via: EasyCDDAExtractor 6.2.0.3
#
DISCID=3e041f05
DTITLE=Tina White
DYEAR=2007
DGENRE=Country
TTITLE0=God Bless The U.S.A.
TTITLE1=Out Of Your Shoes Tonight
TTITLE2=The Greatest Man I Never Knew
TTITLE3=Valentine
TTITLE4=Black Velvet
EXTD=
EXTT0=
EXTT1=
EXTT2=
EXTT3=
EXTT4=
PLAYORDER=
